<svg id="Layer_1" data-name="Layer 1" xmlns="http://www.w3.org/2000/svg" viewBox="0 0 1161.13 451.67"><defs><style>.cls-1{fill:#f7a600;}.cls-2{fill:#f29200;}.cls-3{fill:#ec6f05;}.cls-4{fill:#e2071e;}.cls-5{fill:#c91456;}.cls-6{fill:#851f82;}</style></defs><path class="cls-1" d="M199.09,267.48a65.66,65.66,0,1,1,3.2-131.25l-1.68,34.08a31.56,31.56,0,0,0-24.82,52.85,31.57,31.57,0,0,0,54.8-19.79L264.66,205a65.62,65.62,0,0,1-65.57,62.46"/><path class="cls-2" d="M296.35,170.15a31.57,31.57,0,1,0,31.57,31.57,31.61,31.61,0,0,0-31.57-31.57m0,97.25A65.69,65.69,0,1,1,362,201.72a65.76,65.76,0,0,1-65.69,65.68"/><path class="cls-3" d="M378.09,268.36a50.21,50.21,0,0,0,50.16-50.16V202a31.45,31.45,0,1,1,62.9,0v62.17h34V202a65.44,65.44,0,1,0-130.88,0v16.16a16.17,16.17,0,1,1-32.34,0V135.93h-34V218.2a50.21,50.21,0,0,0,50.16,50.16"/><path class="cls-4" d="M638.79,268.36a50.21,50.21,0,0,1-50.16-50.16V202a31.45,31.45,0,1,0-62.9,0v62.17h-34V202a65.44,65.44,0,0,1,130.88,0v16.16a16.17,16.17,0,1,0,32.34,0V161.91h34V218.2a50.21,50.21,0,0,1-50.16,50.16"/><path class="cls-5" d="M884.52,201.89V218.2a16.18,16.18,0,1,1-32.35,0V202a65.44,65.44,0,1,0-130.88,0V218.2a16.17,16.17,0,1,1-32.34,0V161.91H655V218.2a50.16,50.16,0,1,0,100.32,0V202a31.46,31.46,0,1,1,62.91,0v16.16a50.16,50.16,0,1,0,100.32,0V201.89Z"/><path class="cls-6" d="M950,170.44a31.46,31.46,0,1,0,31.45,31.45A31.49,31.49,0,0,0,950,170.44m0,96.89a65.44,65.44,0,1,1,65.44-65.44A65.51,65.51,0,0,1,950,267.33"/><path class="cls-5" d="M689.51,121.49a18.41,18.41,0,1,1-18.41-18.41,18.41,18.41,0,0,1,18.41,18.41"/><path class="cls-6" d="M661.2,349.55H669V291.34H661.2ZM628.94,325a10.32,10.32,0,0,1,14.47,0,12.58,12.58,0,0,1,0,15.65,10.43,10.43,0,0,1-14.54,0,11.32,11.32,0,0,1-2.69-8,10.79,10.79,0,0,1,2.76-7.65m-5.58,20.34A17.07,17.07,0,0,0,636,350.52a17.78,17.78,0,0,0,12.86-5.07,18,18,0,0,0,0-25.26,18.35,18.35,0,0,0-25.43,0,16.69,16.69,0,0,0-5.2,12.38,17.4,17.4,0,0,0,5.1,12.82M587.88,325a10.33,10.33,0,0,1,14.48,0,12.62,12.62,0,0,1,0,15.65,10.43,10.43,0,0,1-14.54,0,11.27,11.27,0,0,1-2.69-8,10.83,10.83,0,0,1,2.75-7.65m-5.58,20.34A17.09,17.09,0,0,0,595,350.52a17.76,17.76,0,0,0,12.85-5.07,18,18,0,0,0,0-25.26,18.35,18.35,0,0,0-25.43,0,16.7,16.7,0,0,0-5.21,12.38,17.4,17.4,0,0,0,5.1,12.82m-40.92,4.2h7.76V333.32c0-4.14.54-7.05,1.62-8.75s3-2.52,5.72-2.52c2.11,0,3.65.6,4.6,1.81s1.43,3.15,1.43,5.84v19.85h7.75V329q0-7-2.89-10.24a11.81,11.81,0,0,0-9.1-3.69,13.32,13.32,0,0,0-9.13,3.73V291.34h-7.76Zm-17.12-34.5a18,18,0,0,0-13,5.17,17,17,0,0,0-5.31,12.68,16.79,16.79,0,0,0,5.24,12.58,18.06,18.06,0,0,0,13,5,20.37,20.37,0,0,0,9.44-2.45V337.83a19.51,19.51,0,0,1-4.86,4.55,9.76,9.76,0,0,1-4.93,1.21,9.42,9.42,0,0,1-7.2-3,11,11,0,0,1-2.79-7.76,10.73,10.73,0,0,1,2.89-7.68,9.58,9.58,0,0,1,7.28-3.07,9.25,9.25,0,0,1,4.86,1.24,18.87,18.87,0,0,1,4.75,4.45V317.43a19.51,19.51,0,0,0-9.37-2.38m-34.53,0a10.57,10.57,0,0,0-7.45,2.86,9.57,9.57,0,0,0-3,7.24,8.14,8.14,0,0,0,1.75,5.41,14.61,14.61,0,0,0,4.76,3.31l2.38,1.14c.78.36,1.56.74,2.34,1.13q3,1.8,3,3.86,0,3.58-3.93,3.59a4.79,4.79,0,0,1-3.37-1.31,14.18,14.18,0,0,1-2.11-3.07l-6.61,3.07q3.51,8.24,12,8.24a12.22,12.22,0,0,0,8.41-3.11,10.58,10.58,0,0,0,3.58-8.13,8.34,8.34,0,0,0-2.14-6q-2.13-2.24-8.3-4.89c-3-1.27-4.48-2.54-4.48-3.83a2.36,2.36,0,0,1,.76-1.81,2.57,2.57,0,0,1,1.82-.71c1.49,0,2.75,1,3.76,3.11l6.41-3.42q-3.13-6.65-9.58-6.65"/></svg>